<svg width="15" height="14" viewBox="0 0 15 14" fill="none" xmlns="http://www.w3.org/2000/svg">
<path d="M11.0071 0.4375C10.3505 0.447767 9.70821 0.632023 9.14512 0.971663C8.58202 1.3113 8.11805 1.7943 7.80005 2.37187C7.48205 1.7943 7.01808 1.3113 6.45498 0.971663C5.89188 0.632023 5.24961 0.447767 4.59301 0.4375C3.54631 0.483216 2.56016 0.943516 1.84999 1.71784C1.13982 2.49216 0.763366 3.51756 0.802872 4.57002C0.802872 8.54134 7.19129 13.1281 7.46302 13.3228L7.80005 13.5625L8.13708 13.3228C8.4088 13.1293 14.7972 8.54134 14.7972 4.57002C14.8367 3.51756 14.4603 2.49216 13.7501 1.71784C13.0399 0.943516 12.0538 0.483216 11.0071 0.4375ZM7.80005 12.1193C5.90323 10.6949 1.96907 7.19549 1.96907 4.57002C1.92921 3.82834 2.1827 3.10091 2.67425 2.54637C3.1658 1.99184 3.85553 1.65519 4.59301 1.60985C5.33049 1.65519 6.02022 1.99184 6.51177 2.54637C7.00332 3.10091 7.25681 3.82834 7.21695 4.57002H8.38315C8.34329 3.82834 8.59677 3.10091 9.08832 2.54637C9.57987 1.99184 10.2696 1.65519 11.0071 1.60985C11.7446 1.65519 12.4343 1.99184 12.9259 2.54637C13.4174 3.10091 13.6709 3.82834 13.631 4.57002C13.631 7.19666 9.69687 10.6949 7.80005 12.1193Z" fill="#1D1D1D"/>
</svg>
