<svg width="46" height="48" viewBox="0 0 46 48" fill="none" xmlns="http://www.w3.org/2000/svg">
<rect x="0.5" y="0.5" width="45" height="47" fill="white"/>
<rect x="0.5" y="0.5" width="45" height="47" stroke="#EEEEEE"/>
<path d="M23.6328 27.0137H22.3496V29H21.4004V27.0137H17.2578V26.1934L21.3359 20.3867H22.3496V26.1348H23.6328V27.0137ZM21.4004 26.1348V23.334C21.4004 23.1191 21.4023 22.9258 21.4062 22.7539C21.4102 22.5781 21.416 22.416 21.4238 22.2676C21.4316 22.1152 21.4375 21.9707 21.4414 21.834C21.4492 21.6973 21.4551 21.5625 21.459 21.4297H21.4121C21.3379 21.5859 21.252 21.752 21.1543 21.9277C21.0605 22.0996 20.9648 22.2539 20.8672 22.3906L18.2246 26.1348H21.4004ZM30.0723 29H24.459V28.1855L26.75 25.8594C27.1758 25.4297 27.5332 25.0469 27.8223 24.7109C28.1152 24.375 28.3379 24.0449 28.4902 23.7207C28.6426 23.3926 28.7188 23.0332 28.7188 22.6426C28.7188 22.1582 28.5742 21.7891 28.2852 21.5352C28 21.2773 27.623 21.1484 27.1543 21.1484C26.7441 21.1484 26.3809 21.2188 26.0645 21.3594C25.748 21.5 25.4238 21.6992 25.0918 21.957L24.5703 21.3008C24.7969 21.1094 25.043 20.9395 25.3086 20.791C25.5781 20.6426 25.8652 20.5254 26.1699 20.4395C26.4785 20.3535 26.8066 20.3105 27.1543 20.3105C27.6816 20.3105 28.1367 20.4023 28.5195 20.5859C28.9023 20.7695 29.1973 21.0312 29.4043 21.3711C29.6152 21.7109 29.7207 22.1152 29.7207 22.584C29.7207 23.0371 29.6309 23.459 29.4512 23.8496C29.2715 24.2363 29.0195 24.6211 28.6953 25.0039C28.3711 25.3828 27.9922 25.7852 27.5586 26.2109L25.6953 28.0684V28.1094H30.0723V29Z" fill="#8A8A8A"/>
<line x1="45.3613" y1="1.34561" x2="1.36132" y2="47.3456" stroke="#CECECE"/>
</svg>
